<svg class="___13t7fzu f1w7gpdv fez10in f16hsg94 fwpfdsa f88nxoq f1e2fz10 f1dd5bof" aria-label="ArrowSortRegular"
    fill="currentColor" role="img" width="1em" height="1em" viewBox="0 0 20 20" xmlns="http://www.w3.org/2000/svg">
    <path
        d="M2.35 7.35 5 4.71V16.5a.5.5 0 0 0 1 0V4.7l2.65 2.65a.5.5 0 0 0 .7-.7l-3.49-3.5A.5.5 0 0 0 5.5 3a.5.5 0 0 0-.39.18L1.65 6.65a.5.5 0 1 0 .7.7Zm15.3 5.3L15 15.29V3.5a.5.5 0 0 0-1 0v11.8l-2.65-2.65a.5.5 0 0 0-.7.7l3.49 3.5a.5.5 0 0 0 .36.15.5.5 0 0 0 .39-.18l3.46-3.47a.5.5 0 1 0-.7-.7Z"
        fill="currentColor"></path>
</svg>