<svg aria-label="SpeakerOffRegular" fill="currentColor" role="img" width="64" height="64" viewBox="0 0 20 20"
    xmlns="http://www.w3.org/2000/svg">
    <path
        d="M3.5 6C2.68 6 2 6.67 2 7.5v5c0 .83.68 1.5 1.5 1.5H6.1a.5.5 0 0 1 .34.13l3.88 3.6a1 1 0 0 0 1.68-.74V3a1 1 0 0 0-1.68-.74L7.24 5.12 6.1 6H3.5ZM11 3.01v13.98L7.12 13.4A1.5 1.5 0 0 0 6.1 13H3.5a.5.5 0 0 1-.5-.5v-5c0-.28.22-.5.5-.5h2.6l.02-.01L11 3.01Zm3.76 4.24a.5.5 0 1 0-.86.5 4.5 4.5 0 0 1 0 4.5.5.5 0 1 0 .86.5 5.5 5.5 0 0 0 0-5.5Zm1.28-2.58a.5.5 0 1 0-.74.66 7 7 0 0 1 0 9.34.5.5 0 1 0 .74.66 8 8 0 0 0 0-10.66Z"
        fill="currentColor"></path>
</svg>